<?xml version="1.0" standalone="no"?>
<!DOCTYPE svg PUBLIC "-//W3C//DTD SVG 20010904//EN"
 "http://www.w3.org/TR/2001/REC-SVG-20010904/DTD/svg10.dtd">
<svg version="1.0" xmlns="http://www.w3.org/2000/svg"
 width="360.000000pt" height="360.000000pt" viewBox="0 0 360.000000 360.000000"
 preserveAspectRatio="xMidYMid meet">
<metadata>
Created by potrace 1.14, written by Peter Selinger 2001-2017
</metadata>
<g transform="translate(0.000000,360.000000) scale(0.100000,-0.100000)"
fill="#000000" stroke="none">
<path d="M1525 3171 c-567 -101 -1015 -541 -1141 -1121 -26 -120 -27 -429 -1
-550 121 -567 529 -986 1091 -1118 99 -23 131 -26 306 -26 176 0 206 2 306 26
550 130 960 540 1085 1084 30 132 37 388 14 525 -25 149 -59 258 -120 386
-209 436 -611 735 -1081 803 -109 15 -345 11 -459 -9z m523 -559 c147 -125
340 -290 430 -366 l162 -138 0 -624 0 -624 -860 0 -860 0 0 623 0 624 428 366
c235 201 428 366 430 366 2 1 123 -101 270 -227z"/>
<path d="M1463 2283 l-313 -256 0 -473 0 -474 190 0 190 0 0 365 0 365 250 0
250 0 0 -365 0 -365 190 0 190 0 0 474 0 474 -310 254 c-171 139 -314 254
-318 255 -4 1 -148 -113 -319 -254z"/>
</g>
</svg>
